<svg xmlns="http://www.w3.org/2000/svg" style="position:absolute; width: 0; height: 0;"><symbol viewBox="0 0 214 214" id="analyzer"><g fill-rule="nonzero" fill="none" opacity=".1"><path fill="#0E0F27" d="M83.739 0h46.522v209.348H83.739z"></path><path fill="#FFF" d="M13.957 144.217h46.522v65.13H13.957z"></path><path fill="#DBB575" d="M153.522 37.217h46.522v172.13h-46.522z"></path><path d="M209.348 214H4.767a4.65 4.65 0 0 1-4.652-4.652 4.65 4.65 0 0 1 4.652-4.652h204.58a4.65 4.65 0 0 1 4.653 4.652 4.65 4.65 0 0 1-4.652 4.652z" fill="#0E0F27"></path></g></symbol><symbol viewBox="0 0 214 214" id="audit"><g fill-rule="nonzero" fill="none" opacity=".1"><path d="M114.38 99.34h99.34C210.089 46.132 167.588 3.627 114.38 0v99.34z" fill="#DBB575"></path><path d="M185.623 179.232c16.024-17.378 26.385-40.062 28.093-65.133h-93.227l65.134 65.133z" fill="#FFF"></path><path d="M99.62 114.099V0C43.974 3.793 0 50.106 0 106.72c0 59.093 47.906 107 107 107 25.79 0 49.427-9.147 67.893-24.348l-75.272-75.273z" fill="#0E0F27"></path></g></symbol><symbol viewBox="0 0 214 214" id="infosng"><g fill-rule="nonzero" fill="none" opacity=".1"><path d="M166.179 106c0 12.225-3.76 23.57-10.179 32.968L190.14 173c14.91-18.286 23.86-41.6 23.86-67s-8.946-48.714-23.856-67l-34.14 34.032A58.27 58.27 0 0 1 166.179 106z" fill="#FFF"></path><path d="M138.924 155.783A58.224 58.224 0 0 1 105.912 166c-28.676 0-52.52-20.673-57.678-48H0c5.511 53.93 50.826 96 105.912 96 25.437 0 48.778-8.98 67.088-23.945l-34.076-34.272z" fill="#DBB575"></path><path d="M48.234 96c5.159-27.327 29.002-48 57.678-48a58.224 58.224 0 0 1 33.012 10.217L173 23.948C154.69 8.98 131.345 0 105.912 0 50.826 0 5.512 42.066 0 96h48.234z" fill="#0E0F27"></path></g></symbol><symbol viewBox="0 0 21 21" id="languages"><g transform="translate(3 3)" stroke="#FFF" fill="none" fill-rule="evenodd"><circle stroke-width="2" cx="7.5" cy="7.5" r="7.5"></circle><path d="M7.577 3v8.984M4 5.577h6.965M3 7.577h9.256M4 9.577h6.918" stroke-width="1.5" stroke-linecap="round"></path></g></symbol><symbol viewBox="0 0 97.713 97.713" id="marker"><path d="M48.855 0C29.021 0 12.883 16.138 12.883 35.974c0 5.174 1.059 10.114 3.146 14.684 8.994 19.681 26.238 40.46 31.31 46.359a2.003 2.003 0 0 0 3.034 0c5.07-5.898 22.314-26.676 31.311-46.359 2.088-4.57 3.146-9.51 3.146-14.684C84.828 16.138 68.69 0 48.855 0zm0 54.659c-10.303 0-18.686-8.383-18.686-18.686 0-10.304 8.383-18.687 18.686-18.687s18.686 8.383 18.686 18.687c.001 10.303-8.382 18.686-18.686 18.686z"></path></symbol><symbol viewBox="0 0 24 15" id="menu_btn"><g fill-rule="nonzero"><path d="M.906 3h22.188c.5 0 .906-.672.906-1.5S23.594 0 23.094 0H.906C.406 0 0 .672 0 1.5S.406 3 .906 3zM.906 9h22.188c.5 0 .906-.672.906-1.5S23.594 6 23.094 6H.906C.406 6 0 6.672 0 7.5S.406 9 .906 9zM.906 15h22.188c.5 0 .906-.672.906-1.5s-.406-1.5-.906-1.5H.906c-.5 0-.906.672-.906 1.5S.406 15 .906 15z"></path></g></symbol><symbol viewBox="0 0 14 14" id="message"><g fill="#030104"><path d="M7 9L5.268 7.484.316 11.729c.18.167.423.271.691.271h11.986c.267 0 .509-.104.688-.271L8.732 7.484 7 9z"></path><path d="M13.684 2.271A1.007 1.007 0 0 0 12.993 2H1.007c-.267 0-.509.104-.689.273L7 8l6.684-5.729zM0 2.878v8.308l4.833-4.107zM9.167 7.079L14 11.186V2.875z"></path></g></symbol><symbol viewBox="0 0 578.106 578.106" id="phone"><path d="M577.83 456.128c1.225 9.385-1.635 17.545-8.568 24.48l-81.396 80.781c-3.672 4.08-8.465 7.551-14.381 10.404-5.916 2.857-11.729 4.693-17.439 5.508-.408 0-1.635.105-3.676.309-2.037.203-4.689.307-7.953.307-7.754 0-20.301-1.326-37.641-3.979s-38.555-9.182-63.645-19.584c-25.096-10.404-53.553-26.012-85.376-46.818-31.823-20.805-65.688-49.367-101.592-85.68-28.56-28.152-52.224-55.08-70.992-80.783-18.768-25.705-33.864-49.471-45.288-71.299-11.425-21.828-19.993-41.616-25.705-59.364S4.59 177.362 2.55 164.51-.306 141.56.102 134.216c.408-7.344.612-11.424.612-12.24.816-5.712 2.652-11.526 5.508-17.442s6.324-10.71 10.404-14.382L98.022 8.756c5.712-5.712 12.24-8.568 19.584-8.568 5.304 0 9.996 1.53 14.076 4.59s7.548 6.834 10.404 11.322l65.484 124.236c3.672 6.528 4.692 13.668 3.06 21.42-1.632 7.752-5.1 14.28-10.404 19.584l-29.988 29.988c-.816.816-1.53 2.142-2.142 3.978s-.918 3.366-.918 4.59c1.632 8.568 5.304 18.36 11.016 29.376 4.896 9.792 12.444 21.726 22.644 35.802s24.684 30.293 43.452 48.653c18.36 18.77 34.68 33.354 48.96 43.76 14.277 10.4 26.215 18.053 35.803 22.949 9.588 4.896 16.932 7.854 22.031 8.871l7.648 1.531c.816 0 2.145-.307 3.979-.918 1.836-.613 3.162-1.326 3.979-2.143l34.883-35.496c7.348-6.527 15.912-9.791 25.705-9.791 6.938 0 12.443 1.223 16.523 3.672h.611l118.115 69.768c8.571 5.308 13.67 12.038 15.303 20.198z" fill="#010002"></path></symbol><symbol viewBox="0 0 229 212" id="razrab"><g fill-rule="nonzero" fill="none" opacity=".1"><path fill="#0E0F27" opacity=".7" d="M11.45 153.768h38.167v53.5H11.45z"></path><path fill="#0E0F27" opacity=".8" d="M68.7 119.375h38.167v87.893H68.7z"></path><path fill="#0E0F27" opacity=".9" d="M125.95 88.804h38.167v118.464H125.95z"></path><path fill="#0E0F27" d="M183.2 58.232h38.167v149.036H183.2z"></path><path d="M225.183 211.09H3.817A3.818 3.818 0 0 1 0 207.267a3.818 3.818 0 0 1 3.817-3.822h221.366a3.818 3.818 0 0 1 3.817 3.822 3.818 3.818 0 0 1-3.817 3.821zM30.648 97.707a3.81 3.81 0 0 1-3.31-1.91 3.825 3.825 0 0 1 1.398-5.22L177.475 4.595a3.813 3.813 0 0 1 5.214 1.398 3.825 3.825 0 0 1-1.397 5.22L32.552 97.195c-.599.348-1.26.513-1.904.513z" fill="#DBB575"></path><path d="M179.387 11.725c-.122 0-.244-.007-.374-.019l-32.678-3.172a3.817 3.817 0 0 1-3.428-4.173A3.799 3.799 0 0 1 147.075.93l32.679 3.172a3.817 3.817 0 0 1 3.427 4.173 3.818 3.818 0 0 1-3.794 3.45z" fill="#DBB575"></path><path d="M165.785 41.647a3.82 3.82 0 0 1-3.473-5.404l13.594-29.921c.874-1.922 3.138-2.778 5.054-1.896a3.82 3.82 0 0 1 1.893 5.06l-13.595 29.922a3.808 3.808 0 0 1-3.473 2.24z" fill="#DBB575"></path></g></symbol><symbol viewBox="0 0 24 23" id="search"><path d="M20.711 19.217l-4.684-4.95a8.128 8.128 0 0 0 1.864-5.192C17.891 4.623 14.327 1 9.946 1S2 4.623 2 9.075c0 4.452 3.565 8.075 7.946 8.075a7.774 7.774 0 0 0 4.552-1.461l4.72 4.988a1.022 1.022 0 0 0 1.465.03c.411-.404.424-1.071.028-1.49zM9.946 3.107c3.238 0 5.873 2.677 5.873 5.968s-2.635 5.968-5.873 5.968c-3.239 0-5.873-2.677-5.873-5.968s2.634-5.968 5.873-5.968z" fill-rule="nonzero"></path></symbol><symbol viewBox="0 0 21 21" id="services"><g fill-rule="nonzero"><path d="M5 15c-1.103 0-2 .897-2 2s.897 2 2 2 2-.897 2-2-.897-2-2-2zM11 15c-1.103 0-2 .897-2 2s.897 2 2 2 2-.897 2-2-.897-2-2-2zM17 15c-1.103 0-2 .897-2 2s.897 2 2 2 2-.897 2-2-.897-2-2-2zM5 9c-1.103 0-2 .897-2 2s.897 2 2 2 2-.897 2-2-.897-2-2-2zM11 9c-1.103 0-2 .897-2 2s.897 2 2 2 2-.897 2-2-.897-2-2-2zM17 9c-1.103 0-2 .897-2 2s.897 2 2 2 2-.897 2-2-.897-2-2-2zM5 3c-1.103 0-2 .897-2 2s.897 2 2 2 2-.897 2-2-.897-2-2-2zM11 3c-1.103 0-2 .897-2 2s.897 2 2 2 2-.897 2-2-.897-2-2-2zM17 7c1.103 0 2-.897 2-2s-.897-2-2-2-2 .897-2 2 .897 2 2 2z"></path></g></symbol><symbol viewBox="0 0 184 214" id="shield"><g fill-rule="nonzero" fill="none" opacity=".1"><path d="M146.518 25.814c-26.986 0-43.375-15.303-50.436-23.872a5.26 5.26 0 0 0-8.164 0c-7.061 8.57-23.45 23.872-50.437 23.872H7.36c-4.065 0-7.36 3.304-7.36 7.38v47.97C0 166.03 68.148 206.62 92 214c23.852-7.38 92-47.97 92-132.837V33.194c0-4.076-3.295-7.38-7.36-7.38h-30.122z" fill="#DBB575"></path><path d="M92 19.081c10.816 10.153 28.67 21.493 54.446 21.493h22.73v40.59c0 32.888-11.133 61.638-33.091 85.448-16.042 17.395-33.923 27.506-44.085 31.695-10.162-4.189-28.043-14.3-44.085-31.695-21.958-23.81-33.092-52.56-33.092-85.449V40.574h22.73c25.778 0 43.631-11.34 54.447-21.493zM92 0c-1.505 0-3.01.647-4.077 1.942-7.052 8.57-23.418 23.872-50.37 23.872H7.474c-4.06 0-7.35 3.305-7.35 7.38v47.969C.123 166.03 68.18 206.62 92 214c23.82-7.38 91.877-47.97 91.877-132.837v-47.97c0-4.075-3.291-7.379-7.35-7.379h-30.08c-26.951 0-43.318-15.303-50.37-23.872A5.258 5.258 0 0 0 92 0z" fill="#0E0F27"></path><path d="M92.829 200.729c-.476 0-.953-.094-1.403-.277-5.83-2.382-26.342-11.764-45.592-32.459-22.715-24.408-34.23-53.874-34.23-87.575V40.005a3.68 3.68 0 0 1 3.692-3.674h22.837c24.99 0 42.166-11.1 52.175-20.41a3.702 3.702 0 0 1 5.041 0c10.01 9.31 27.186 20.41 52.176 20.41h22.837a3.68 3.68 0 0 1 3.692 3.674v40.413c0 33.7-11.516 63.167-34.231 87.575-19.25 20.695-39.761 30.077-45.592 32.46a3.729 3.729 0 0 1-1.402.276zM18.988 43.679v36.74c0 31.792 10.855 59.576 32.262 82.58 16.906 18.172 34.717 27.085 41.579 30.067 6.86-2.982 24.672-11.894 41.579-30.067 21.406-23.005 32.262-50.789 32.262-82.58v-36.74h-19.146c-25.404 0-43.45-10.469-54.695-20.134C81.583 33.21 63.537 43.68 38.133 43.68H18.988z" fill="#FFF"></path></g></symbol><symbol viewBox="0 0 239 214" id="swot"><g fill-rule="nonzero" fill="none" opacity=".1"><path fill="#0E0F27" d="M115.231 57.615h8.231v98.769h-8.231z"></path><path fill="#0E0F27" d="M214 156.385h-8.23v-45.27H32.922v45.27h-8.23v-53.5H214z"></path><path d="M28.808 214C12.898 214 0 201.102 0 185.192s12.898-28.807 28.808-28.807 28.807 12.897 28.807 28.807c0 15.91-12.897 28.808-28.807 28.808zM209.885 214c-15.91 0-28.808-12.898-28.808-28.808s12.898-28.807 28.808-28.807 28.807 12.897 28.807 28.807c0 15.91-12.897 28.808-28.807 28.808zM119.346 214c-15.91 0-28.808-12.898-28.808-28.808s12.898-28.807 28.808-28.807 28.808 12.897 28.808 28.807c0 15.91-12.898 28.808-28.808 28.808zM119.346 57.615c-15.91 0-28.808-12.897-28.808-28.807C90.538 12.898 103.436 0 119.346 0s28.808 12.898 28.808 28.808-12.898 28.807-28.808 28.807z" fill="#DBB575"></path></g></symbol><symbol viewBox="0 0 165 214" id="zamok"><g fill-rule="nonzero" fill="none" opacity=".1"><path d="M82.5 0C51.492 0 26.265 25.174 26.265 56.116v33.67h14.996v-33.67c0-22.727 18.464-41.152 41.239-41.152s41.239 18.425 41.239 41.152v33.67h14.996v-33.67C138.735 25.174 113.508 0 82.5 0z" fill="#DBB575"></path><path d="M153.747 208.6H11.254C5.04 208.6 0 203.767 0 197.812V97.197C0 91.24 5.04 86.41 11.254 86.41h142.489c6.217 0 11.257 4.831 11.257 10.787v100.612c0 5.96-5.04 10.79-11.253 10.79z" fill="#0E0F27"></path><path d="M153.746 214H11.254C5.04 214 0 209.01 0 202.858v-18.561h165v18.56c0 6.153-5.04 11.143-11.254 11.143z" fill="#0E0F27"></path><path d="M96.98 123.733c0-9.482-8.642-16.918-18.365-14.627-5.252 1.237-9.53 5.528-10.812 10.847-1.711 7.104 1.567 13.555 6.952 16.737v17.132c0 4.156 3.315 7.522 7.408 7.522 4.094 0 7.408-3.366 7.408-7.522V136.69c4.412-2.606 7.409-7.402 7.409-12.957z" fill="#DBB575"></path></g></symbol></svg>